<svg version="1.1" id="HorizonsDiscordV_x40_-02.png_xA0_Image_00000117652494580192922520000016040678746547822774_"
	 xmlns="http://www.w3.org/2000/svg" xmlns:xlink="http://www.w3.org/1999/xlink" x="0px" y="0px" viewBox="0 0 2541.03 2541.03"
	 style="enable-background:new 0 0 2541.03 2541.03;" xml:space="preserve">
<style type="text/css">
	.st0{fill:#0036E7;}
	.st1{fill:#FFFFFF;}
	.st2{fill:#2050EB;}
</style>
<path class="st0" d="M2.76,1.47c845.33,0,1690.66,0,2535.99,0c0,846.05,0,1692.09,0,2538.14c-4.21,2.26-8.77,1.15-13.15,1.15
	c-836.59,0.06-1673.19,0.06-2509.78,0.02c-4.43,0-8.94,0.72-13.3-0.77c-3.56-4.7-2.12-10.18-2.13-15.31
	c-0.1-86.85-0.07-173.69-0.07-260.54c0-747.52-0.01-1495.04,0.09-2242.56C0.41,14.88-1.46,7.77,2.76,1.47z"/>
<path class="st1" d="M1808.04,1383.4c-143.72,0-287.43,0-431.15,0c-3.25,0-6.51-0.19-9.74,0.03c-4.5,0.32-6.55-1.88-7.61-6.01
	c-6.59-25.51-13.22-51-20.04-76.45c-1.37-5.09,0.37-6.7,5.18-6.5c3.24,0.13,6.49,0.01,9.74,0.01c259.82,0,519.65,0,779.47,0
	c2.84,0,5.68,0.03,8.53-0.01c10.79-0.14,10.8-0.15,10.59-10.63c-3.54-181.49-55.4-347.75-160.82-495.74
	c-134.34-188.59-315.78-307.23-542.27-355.98c-83.86-18.05-168.89-22.38-254.32-14.81C820.69,450.52,509.75,716,417.59,1081.55
	c-16.52,65.54-25.11,132.24-25.73,199.89c-0.03,2.84,0.04,5.68,0.04,8.52c0,2.95,1.44,4.44,4.41,4.45
	c3.65,0.01,7.31,0.06,10.96,0.06c255.36,0,510.72,0.01,766.08,0c19.96,0,16.95-0.81,12.75,15.83
	c-5.45,21.61-11.48,43.08-16.89,64.71c-1.51,6.04-4.01,9.37-10.65,8.43c-2.39-0.34-4.86-0.05-7.3-0.05c-282.56,0-565.12,0-847.68,0
	c-15.43,0-15.66,0.01-16.84-14.96c-3.96-50.26-3.6-100.51,0.17-150.79c6.74-89.94,25.73-177.2,56.56-261.91
	c112.93-310.3,376.77-545.44,697.49-622.21c94.25-22.56,189.74-31.16,286.3-25.76c365.28,20.42,670.27,235.8,824.23,534.85
	c50.2,97.5,83.13,200.54,98.97,308.97c10.66,72.94,12.99,146.25,7.45,219.79c-0.18,2.43-0.48,4.84-0.79,7.26
	c-0.43,3.36-2.34,4.88-5.76,4.76c-3.24-0.11-6.49,0.01-9.74,0.01C2097.09,1383.4,1952.57,1383.4,1808.04,1383.4z"/>
<path class="st1" d="M2211.99,1601.21c-10.45,33.08-22.59,63.93-35.95,94.33c-1.75,3.99-4.09,5.69-8.29,5.39
	c-2.42-0.17-4.87-0.02-7.3-0.02c-233.8,0-467.59,0.03-701.39-0.06c-14.79-0.01-13.16,3.3-17.45-13.35
	c-6.47-25.11-13.2-50.17-19.89-75.22c-0.94-3.52-2.23-6.93-1.35-11.06C1683.81,1601.21,1947.18,1601.21,2211.99,1601.21z"/>
<path class="st1" d="M334.26,1601.16c258.02,0,515.68,0,773.17,0c1.91,3.67-0.01,6.61-0.81,9.64c-7.22,27.43-14.65,54.8-21.54,82.31
	c-1.44,5.73-3.61,8.56-9.66,7.85c-2.4-0.28-4.86-0.04-7.3-0.04c-227.68,0-455.36-0.1-683.05,0.3c-11.21,0.02-16.22-3.32-20.3-13.54
	c-10.22-25.59-20.68-51.08-29.35-77.25C334.55,1607.75,333.07,1605.2,334.26,1601.16z"/>
<path class="st1" d="M2123.75,1796.28c-23.36,40.98-50.65,79.26-79.85,116.24c-2.82,3.57-5.9,5.23-10.35,4.78
	c-2.01-0.2-4.06-0.03-6.09-0.03c-170.51,0-341.01,0-511.52,0c-13.81,0-13.81-0.01-17.4-13.67c-8.55-32.54-17.1-65.07-25.66-97.6
	c-0.71-2.72-2.02-5.34-1.16-8.38c2.09-2.61,5.1-1.66,7.74-1.66c212.73-0.04,425.45-0.04,638.18-0.02c2.03,0,4.05,0.18,6.08,0.28
	L2123.75,1796.28z"/>
<path class="st1" d="M422.76,1796.52c210.96,0,422.1,0,633.15,0c2.3,3.45-0.07,6.4-0.84,9.34c-8.89,34.1-17.89,68.17-26.92,102.23
	c-2.41,9.09-2.5,9.17-12.23,9.17c-167.55,0.02-335.1-0.02-502.64,0.15c-6.35,0.01-10.4-1.93-14.3-6.87
	c-26.95-34.08-51.73-69.65-74.15-106.86C423.66,1801.73,421.57,1799.92,422.76,1796.52z"/>
<path class="st1" d="M1378.9,1449.87c290.43,0,579.35,0,869.07,0c-1.11,15.4-4.85,29.81-7.38,44.4c-1.25,7.18-3.16,14.24-4.59,21.4
	c-0.93,4.67-3.19,7.16-8.29,6.62c-2.81-0.3-5.68-0.04-8.52-0.04c-268.72,0-537.44,0.01-806.17-0.02c-18.95,0-14.28,1.62-19-14.73
	C1388.65,1488.85,1384.13,1469.95,1378.9,1449.87z"/>
<path class="st1" d="M297.57,1449.93c283.41,0,566.9,0,851.47,0c-4.95,19.12-9.36,37.59-14.56,55.85
	c-5.59,19.62-0.78,16.4-21.31,16.41c-262.53,0.08-525.07,0.09-787.6-0.02c-17.25-0.01-14.61,3.83-18.85-15.75
	c-3.17-14.65-6.03-29.37-8.81-44.1C297.19,1458.45,296.07,1454.47,297.57,1449.93z"/>
<path class="st1" d="M1533.01,2031.98c131.97,0,262.99,0,394.07,0c1.38,3.86-2.19,4.86-4.02,6.46
	c-97.07,84.74-206.34,148.52-328.19,190.62c-9.17,3.17-9.3,3.09-11.84-6.46c-16.03-60.3-32.01-120.61-47.99-180.93
	C1534.33,2038.95,1533.88,2036.16,1533.01,2031.98z"/>
<path class="st1" d="M617.56,2031.98c125.3,0,250.6,0,377.84,0c-17.19,65.25-34.16,129.64-51.43,195.17
	c-122.34-43.43-231.03-107.72-327.4-192.91C616.9,2033.49,617.23,2032.73,617.56,2031.98z"/>
<path class="st2" d="M2123.72,1796.21c1.17-2.91,2.28-5.85,3.56-8.71c0.44-0.97,1.25-1.9,3.34-1.28c-0.76,4.41-3.22,7.59-6.88,10.05
	C2123.75,1796.28,2123.72,1796.21,2123.72,1796.21z"/>
</svg>
